<svg version="1" xmlns="http://www.w3.org/2000/svg" width="413.333" height="413.333" viewBox="0 0 310.000000 310.000000"><path d="M208.5 11.6c-20.6 4.5-39.3 20.2-47.7 40.1-4 9.2-5.1 16.9-4.6 29.6.5 10.8 1.2 13.7 5.9 25.5l1.3 3.2-71.1 71.3C34.8 238.9 21 253.2 20 256.4c-3 9.3 1.2 19.6 9.7 23.7 5.5 2.7 14 2.2 19.3-1l3.4-2.1 11.8 11.7L76 300.3l4.1-.6c3.6-.5 5.4-1.7 13.1-9.4 9.3-9.3 11.1-12.9 8.8-17.4-.7-1.3-6-7.2-11.8-13.1l-10.5-10.7 6.6-6.8 6.6-6.8 11.6 11.5c11.3 11.3 11.6 11.5 16.1 11.5 4.4 0 4.8-.2 14-9.7 13.1-13.5 13.1-13.3-2.3-29l-11.7-11.9 35.1-35.1 35.2-35.2 5.3 2.2c2.9 1.2 8 2.8 11.3 3.7 7.8 2.1 25.1 2.1 32.7.1 47.1-12.6 66.2-68.3 36.7-107.3-7.8-10.3-20.7-19.2-34.4-23.5-8.3-2.7-24.9-3.2-34-1.2zm27.1 40.2c6.6 3.4 10.1 6.9 13.3 13.4 7.3 14.5 1.2 31.6-13.8 39-3.5 1.7-6.3 2.3-11.6 2.3-12.3-.1-21.7-6.2-26.8-17.4-3.2-6.8-2.9-16.9.6-23.7 3.3-6.4 10.6-13 16.6-14.9 6.2-2 16.4-1.4 21.7 1.3z"/></svg>